# xmcd CD database file
#
# Track frame offsets:
#	150
#	15565
#	34168
#	49600
#	70450
#	86947
#	105163
#	120225
#	133995
#	150943
#	167603
#	185023
#	200230
#	218345
#	231720
#	249170
#	264273
#	281285
#	299725
#	317170
#
# Disc length: 4384 seconds
#
# Revision: 0
# Processed by: cddbd v1.5.2PL0 Copyright (c) Steve Scherf et al.
# Submitted via: CDex 1.70beta2
#
DISCID=1e111e14
DTITLE=ChartBreakers - ChartBreakers CGC-500
DYEAR=0000
DGENRE=Country
TTITLE0=Alabama/Reckless
TTITLE1=Clint Black/No Time To Kill
TTITLE2=Suzy Bogguss/Just Like The Weather
TTITLE3=Garth Brooks/Ain't Going Down (Til The Sun Comes Up)
TTITLE4=Garth Brooks/American Honky-Tonk Bar Association
TTITLE5=Brooks and Dunn/She Used To Be Mine
TTITLE6=Alabama/Hometown Honeymoon
TTITLE7=John Anderson/Money In The Bank
TTITLE8=Cllint Black and Wynonna/A Bad Goodbye
TTITLE9=Clint Black/When My Ship Comes In
TTITLE10=Boy Howdy/A Cowboy's Born With A Broken Heart
TTITLE11=Alabama/Born Country
TTITLE12=John Anderson/Seminole Wind
TTITLE13=Clint Black/A Better Man
TTITLE14=Garth Brooks/Friends In Low Places
TTITLE15=Brooks and Dunn/Boot Scootin' Boogie
TTITLE16=Alabama/Can't Keep A Good Man Down
TTITLE17=Clint Black/Loving Blind
TTITLE18=Suzy Bogguss/Aces
TTITLE19=Garth Brooks/Not Counting You
EXTD=YEAR: 0000
EXTT0=
EXTT1=
EXTT2=
EXTT3=
EXTT4=
EXTT5=
EXTT6=
EXTT7=
EXTT8=
EXTT9=
EXTT10=
EXTT11=
EXTT12=
EXTT13=
EXTT14=
EXTT15=
EXTT16=
EXTT17=
EXTT18=
EXTT19=
PLAYORDER=
